<?xml version="1.0" encoding="UTF-8"?>
<!-- Generated by Pixelmator Pro 3.6.18 -->
<svg width="191" height="254" viewBox="0 0 191 254" xmlns="http://www.w3.org/2000/svg">
    <g id="PDF">
        <path id="Path" fill="#dcdfe1" stroke="none" visibility="hidden" d="M 190.851456 176.63855 L 190.851456 58.000351 C 190.851456 54.58902 189.522324 51.37999 187.108536 48.963394 L 142.294662 4.149521 C 139.880859 1.735718 136.671844 0.406601 133.25769 0.406601 L 13.641613 0.406601 C 6.594135 0.406601 0.861732 6.138992 0.861732 13.186478 L 0.861732 121.686188 L 0.861732 176.63855 C 65.26693 184.113159 128.635239 184.377289 190.851456 176.63855 Z"/>
        <path id="path1" fill="#cb180c" stroke="none" visibility="hidden" d="M 0.861732 176.63855 L 0.861732 208.194855 L 0.861732 240.526718 C 0.861732 247.574188 6.594135 253.306595 13.641613 253.306595 L 178.074387 253.306595 C 185.121857 253.306595 190.854263 247.574188 190.854263 240.526718 L 190.854263 176.63855 L 0.861732 176.63855 Z"/>
        <path id="path2" fill="#c4cbd2" stroke="none" visibility="hidden" d="M 138.765289 52.138687 L 190.862686 104.039398 L 190.637909 55.847885 Z"/>
        <path id="path3" fill="#abb2b8" stroke="none" visibility="hidden" d="M 187.108536 48.963394 L 142.294662 4.149521 C 140.397903 2.249954 137.998169 1.052887 135.401733 0.614532 L 135.401733 43.837952 C 135.401733 50.463928 140.794113 55.856323 147.42009 55.856323 L 190.643524 55.856323 C 190.205139 53.262695 189.008102 50.862946 187.108536 48.963394 Z"/>
        <path id="path4" fill="#c4cbd2" stroke="none" visibility="hidden" d="M 138.391571 112.840317 C 137.958832 111.789368 136.930359 111.106552 135.79512 111.106552 L 122.293076 111.106552 L 122.293076 78.007553 C 122.293076 76.456436 121.037003 75.197556 119.483078 75.197556 L 83.470108 75.197556 C 81.918999 75.197556 80.66011 76.456436 80.66011 78.007553 L 80.66011 111.103729 L 67.158058 111.103729 C 66.02282 111.103729 64.997177 111.789368 64.561623 112.837509 C 64.126076 113.888443 64.367729 115.096741 65.171402 115.900406 L 99.489914 150.218933 C 100.037872 150.766876 100.757233 151.042267 101.476593 151.042267 C 102.195953 151.042267 102.915314 150.766876 103.463272 150.218933 L 137.781784 115.903214 C 138.585464 115.096741 138.827118 113.891251 138.391571 112.840317 Z"/>
        <path id="path5" fill="#cb180c" stroke="none" visibility="hidden" d="M 132.771561 107.220322 C 132.338821 106.169373 131.310364 105.486542 130.175125 105.486542 L 116.67308 105.486542 L 116.67308 72.387558 C 116.67308 70.836426 115.416992 69.577545 113.863083 69.577545 L 77.850113 69.577545 C 76.298996 69.577545 75.040108 70.836426 75.040108 72.387558 L 75.040108 105.483734 L 61.538063 105.483734 C 60.402824 105.483734 59.377174 106.169373 58.941628 107.217514 C 58.506073 108.268433 58.747734 109.476746 59.551399 110.280411 L 93.869919 144.598938 C 94.41787 145.146881 95.13723 145.422256 95.85659 145.422256 C 96.575958 145.422256 97.295319 145.146881 97.843262 144.598938 L 132.161789 110.283218 C 132.965454 109.476746 133.207108 108.271255 132.771561 107.220322 Z"/>
        <text id="text1" visibility="hidden" xml:space="preserve" x="49.744" y="247" font-family="DIN Condensed" font-size="64" font-weight="700" fill="#ffffff" baseline-shift="10" letter-spacing="3.84">PDF</text>
    </g>
    <g id="TXT">
        <path id="path6" fill="#dcdfe1" stroke="none" d="M 190.851456 176.63855 L 190.851456 58.000351 C 190.851456 54.58902 189.522324 51.37999 187.108536 48.963394 L 142.294662 4.149521 C 139.880859 1.735718 136.671844 0.406601 133.25769 0.406601 L 13.641613 0.406601 C 6.594135 0.406601 0.861732 6.138992 0.861732 13.186478 L 0.861732 121.686188 L 0.861732 176.63855 C 65.26693 184.113159 128.635239 184.377289 190.851456 176.63855 Z"/>
        <path id="path7" fill="#646464" stroke="none" d="M 0.861732 176.63855 L 0.861732 208.194855 L 0.861732 240.526718 C 0.861732 247.574188 6.594135 253.306595 13.641613 253.306595 L 178.074387 253.306595 C 185.121857 253.306595 190.854263 247.574188 190.854263 240.526718 L 190.854263 176.63855 L 0.861732 176.63855 Z"/>
        <path id="path8" fill="#c4cbd2" stroke="none" d="M 138.765289 52.138687 L 190.862686 104.039398 L 190.637909 55.847885 Z"/>
        <path id="path9" fill="#abb2b8" stroke="none" d="M 187.108536 48.963394 L 142.294662 4.149521 C 140.397903 2.249954 137.998169 1.052887 135.401733 0.614532 L 135.401733 43.837952 C 135.401733 50.463928 140.794113 55.856323 147.42009 55.856323 L 190.643524 55.856323 C 190.205139 53.262695 189.008102 50.862946 187.108536 48.963394 Z"/>
        <path id="path10" fill="#c4cbd2" stroke="none" d="M 138.391571 112.840317 C 137.958832 111.789368 136.930359 111.106552 135.79512 111.106552 L 122.293076 111.106552 L 122.293076 78.007553 C 122.293076 76.456436 121.037003 75.197556 119.483078 75.197556 L 83.470108 75.197556 C 81.918999 75.197556 80.66011 76.456436 80.66011 78.007553 L 80.66011 111.103729 L 67.158058 111.103729 C 66.02282 111.103729 64.997177 111.789368 64.561623 112.837509 C 64.126076 113.888443 64.367729 115.096741 65.171402 115.900406 L 99.489914 150.218933 C 100.037872 150.766876 100.757233 151.042267 101.476593 151.042267 C 102.195953 151.042267 102.915314 150.766876 103.463272 150.218933 L 137.781784 115.903214 C 138.585464 115.096741 138.827118 113.891251 138.391571 112.840317 Z"/>
        <path id="path11" fill="#646464" stroke="none" d="M 132.771561 107.220322 C 132.338821 106.169373 131.310364 105.486542 130.175125 105.486542 L 116.67308 105.486542 L 116.67308 72.387558 C 116.67308 70.836426 115.416992 69.577545 113.863083 69.577545 L 77.850113 69.577545 C 76.298996 69.577545 75.040108 70.836426 75.040108 72.387558 L 75.040108 105.483734 L 61.538063 105.483734 C 60.402824 105.483734 59.377174 106.169373 58.941628 107.217514 C 58.506073 108.268433 58.747734 109.476746 59.551399 110.280411 L 93.869919 144.598938 C 94.41787 145.146881 95.13723 145.422256 95.85659 145.422256 C 96.575958 145.422256 97.295319 145.146881 97.843262 144.598938 L 132.161789 110.283218 C 132.965454 109.476746 133.207108 108.271255 132.771561 107.220322 Z"/>
        <text id="text2" xml:space="preserve" x="54.544" y="247" font-family="DIN Condensed" font-size="64" font-weight="700" fill="#ffffff" baseline-shift="10" letter-spacing="3.84">TXT</text>
    </g>
    <g id="RTF">
        <path id="path12" fill="#dcdfe1" stroke="none" visibility="hidden" d="M 190.851456 176.63855 L 190.851456 58.000351 C 190.851456 54.58902 189.522324 51.37999 187.108536 48.963394 L 142.294662 4.149521 C 139.880859 1.735718 136.671844 0.406601 133.25769 0.406601 L 13.641613 0.406601 C 6.594135 0.406601 0.861732 6.138992 0.861732 13.186478 L 0.861732 121.686188 L 0.861732 176.63855 C 65.26693 184.113159 128.635239 184.377289 190.851456 176.63855 Z"/>
        <path id="path13" fill="#ffb000" stroke="none" visibility="hidden" d="M 0.861732 176.63855 L 0.861732 208.194855 L 0.861732 240.526718 C 0.861732 247.574188 6.594135 253.306595 13.641613 253.306595 L 178.074387 253.306595 C 185.121857 253.306595 190.854263 247.574188 190.854263 240.526718 L 190.854263 176.63855 L 0.861732 176.63855 Z"/>
        <path id="path14" fill="#c4cbd2" stroke="none" visibility="hidden" d="M 138.765289 52.138687 L 190.862686 104.039398 L 190.637909 55.847885 Z"/>
        <path id="path15" fill="#abb2b8" stroke="none" visibility="hidden" d="M 187.108536 48.963394 L 142.294662 4.149521 C 140.397903 2.249954 137.998169 1.052887 135.401733 0.614532 L 135.401733 43.837952 C 135.401733 50.463928 140.794113 55.856323 147.42009 55.856323 L 190.643524 55.856323 C 190.205139 53.262695 189.008102 50.862946 187.108536 48.963394 Z"/>
        <path id="path16" fill="#c4cbd2" stroke="none" visibility="hidden" d="M 138.391571 112.840317 C 137.958832 111.789368 136.930359 111.106552 135.79512 111.106552 L 122.293076 111.106552 L 122.293076 78.007553 C 122.293076 76.456436 121.037003 75.197556 119.483078 75.197556 L 83.470108 75.197556 C 81.918999 75.197556 80.66011 76.456436 80.66011 78.007553 L 80.66011 111.103729 L 67.158058 111.103729 C 66.02282 111.103729 64.997177 111.789368 64.561623 112.837509 C 64.126076 113.888443 64.367729 115.096741 65.171402 115.900406 L 99.489914 150.218933 C 100.037872 150.766876 100.757233 151.042267 101.476593 151.042267 C 102.195953 151.042267 102.915314 150.766876 103.463272 150.218933 L 137.781784 115.903214 C 138.585464 115.096741 138.827118 113.891251 138.391571 112.840317 Z"/>
        <path id="path17" fill="#ffb000" stroke="none" visibility="hidden" d="M 132.771561 107.220322 C 132.338821 106.169373 131.310364 105.486542 130.175125 105.486542 L 116.67308 105.486542 L 116.67308 72.387558 C 116.67308 70.836426 115.416992 69.577545 113.863083 69.577545 L 77.850113 69.577545 C 76.298996 69.577545 75.040108 70.836426 75.040108 72.387558 L 75.040108 105.483734 L 61.538063 105.483734 C 60.402824 105.483734 59.377174 106.169373 58.941628 107.217514 C 58.506073 108.268433 58.747734 109.476746 59.551399 110.280411 L 93.869919 144.598938 C 94.41787 145.146881 95.13723 145.422256 95.85659 145.422256 C 96.575958 145.422256 97.295319 145.146881 97.843262 144.598938 L 132.161789 110.283218 C 132.965454 109.476746 133.207108 108.271255 132.771561 107.220322 Z"/>
        <text id="text3" visibility="hidden" xml:space="preserve" x="52.72" y="247" font-family="DIN Condensed" font-size="64" font-weight="700" fill="#ffffff" baseline-shift="10" letter-spacing="3.84">RTF</text>
    </g>
</svg>
